<svg xmlns="http://www.w3.org/2000/svg" viewBox="0 0 489.74 37.96"><defs><style>.cls-1{fill:#00ebb9;}</style></defs><title>autito</title><g id="Capa_2" data-name="Capa 2"><g id="INICIO"><rect class="cls-1" y="33.71" width="402.96" height="0.9"/><path class="cls-1" d="M489.15,19.89c-1.05-3.34-3-6-6.52-6.86a19.41,19.41,0,0,0-4.55-.36,5.58,5.58,0,0,1-3.61-1.27C470.6,8.26,466.68,5.17,462.8,2a8.32,8.32,0,0,0-5.29-2c-7.71,0-15.41,0-23.12,0a7.33,7.33,0,0,0-6,3.11c-1,1.31-1.86,2.68-2.74,4a4.8,4.8,0,0,1-4.12,2.33,7.88,7.88,0,0,0-7.64,7.81q0,3.26,0,6.52a7.85,7.85,0,0,0,5.79,7.47,1.05,1.05,0,0,1,.84.85,7.88,7.88,0,0,0,15.17.08c.06-.2.15-.4.22-.59h31.85c.06.18.13.34.18.5a7.88,7.88,0,0,0,15.24-.1.85.85,0,0,1,.73-.68,7.49,7.49,0,0,0,5.51-5.19c.15-.46.25-.95.37-1.42V22.39C489.55,21.56,489.41,20.7,489.15,19.89Zm-61.09,14.9A4.73,4.73,0,1,1,432.81,30,4.78,4.78,0,0,1,428.06,34.79Zm47.38,0a4.73,4.73,0,1,1,4.81-4.71A4.78,4.78,0,0,1,475.44,34.79Zm10.82-9.35a4.21,4.21,0,0,1-3,2.79c-2-4.35-4.55-6.25-8.07-6.09a8.12,8.12,0,0,0-7.47,6.28H435.86a8,8,0,0,0-15.52-.22,4.46,4.46,0,0,1-3-2.86,4.39,4.39,0,0,1-.29-1.52c0-2.34-.06-4.69.08-7a4.48,4.48,0,0,1,4-4.06,10.41,10.41,0,0,0,4.08-.94,8,8,0,0,0,2.85-2.64c.78-1.17,1.58-2.33,2.34-3.51A5.11,5.11,0,0,1,435,3.16h22.16a5.57,5.57,0,0,1,3.61,1.31c3.88,3.13,7.8,6.22,11.68,9.36a8.63,8.63,0,0,0,5.73,2,19.08,19.08,0,0,1,3.11.09,5.56,5.56,0,0,1,4.32,3.55A8.22,8.22,0,0,1,486.27,25.45Z"/><path class="cls-1" d="M465.58,12.65H451.79c0-.35,0-.6,0-.84,0-1.23,0-2.47,0-3.7a1.59,1.59,0,0,0-1.38-1.73,1.54,1.54,0,0,0-1.76,1.71c0,1.85,0,3.7,0,5.55,0,1.68.52,2.19,2.22,2.19h14.52a4.77,4.77,0,0,0,1-.1A1.48,1.48,0,0,0,467.55,14C467.41,13.11,466.77,12.65,465.58,12.65Z"/><path class="cls-1" d="M443.63,12.65c-2.17,0-4.35,0-6.52,0h-3.31c.69-1.37,1.32-2.6,1.91-3.84a1.59,1.59,0,1,0-2.83-1.4c-1,2-2,4-3,6a1.56,1.56,0,0,0,1.46,2.38c4.12,0,8.25,0,12.37,0a1.56,1.56,0,0,0,1.73-1.62C445.42,13.27,444.75,12.67,443.63,12.65Z"/><path class="cls-1" d="M456.82,19.06a26,26,0,0,0-3.76,0,1.47,1.47,0,0,0-1.25,1.58,1.54,1.54,0,0,0,1.43,1.45c.56,0,1.13,0,1.7,0h0c.57,0,1.14,0,1.7,0a1.52,1.52,0,0,0,1.46-1.48A1.45,1.45,0,0,0,456.82,19.06Z"/></g></g></svg>