<svg xmlns="http://www.w3.org/2000/svg" viewBox="0 0 33.48 33.49"><defs><style>.cls-1{fill:#fff;}</style></defs><title>instagram loguito</title><g id="Capa_2" data-name="Capa 2"><g id="INICIO"><path class="cls-1" d="M16.73,33.49a16.73,16.73,0,1,1,6.52-1.32A16.74,16.74,0,0,1,16.73,33.49ZM13.3,8.24a6.07,6.07,0,0,0-2.15.39,4.11,4.11,0,0,0-2.54,2.54,4.46,4.46,0,0,0-.39,2.15,29.13,29.13,0,0,0-.1,3.61,29.14,29.14,0,0,0,.1,3.61,6.06,6.06,0,0,0,.39,2.15,4.1,4.1,0,0,0,2.54,2.54h0a6.05,6.05,0,0,0,2.14.39,29.13,29.13,0,0,0,3.61.1,29.14,29.14,0,0,0,3.61-.1,6.05,6.05,0,0,0,2.14-.39h0a4.1,4.1,0,0,0,2.54-2.54h0a6.05,6.05,0,0,0,.39-2.14c0-.38,0-.65,0-1,0-.53.06-1.19.06-2.61a29.13,29.13,0,0,0-.1-3.61,6.05,6.05,0,0,0-.39-2.14h0a4.1,4.1,0,0,0-2.54-2.54,6.06,6.06,0,0,0-2.15-.39,29.14,29.14,0,0,0-3.61-.1,29.13,29.13,0,0,0-3.61.1h0Zm3.61,15.92a27,27,0,0,1-3.52-.1,4.45,4.45,0,0,1-1.58-.27l-.08,0a3.42,3.42,0,0,1-1.66-1.66l0-.08a4.47,4.47,0,0,1-.27-1.58c0-.33,0-.58,0-.89,0-.49-.07-1.17-.07-2.62a27,27,0,0,1,.1-3.52,4.41,4.41,0,0,1,.27-1.58l0-.08a3.49,3.49,0,0,1,.68-1,1.66,1.66,0,0,1,1-.69l.08,0A4.41,4.41,0,0,1,13.4,9.8a27,27,0,0,1,3.52-.1,27.06,27.06,0,0,1,3.52.1,4.46,4.46,0,0,1,1.58.27l.08,0a3.42,3.42,0,0,1,1.66,1.66l0,.08A4.45,4.45,0,0,1,24,13.41c0,.33,0,.58,0,.89,0,.49.07,1.17.07,2.62a27,27,0,0,1-.1,3.52A4.45,4.45,0,0,1,23.78,22l0,.08a3.41,3.41,0,0,1-1.66,1.67l-.07,0a4.45,4.45,0,0,1-1.58.27c-.33,0-.58,0-.89,0C19,24.12,18.37,24.15,16.92,24.15Zm0-11.72a4.48,4.48,0,1,0,3.2,1.33A4.48,4.48,0,0,0,16.92,12.44Zm4.69-1.27a1.07,1.07,0,1,0,1.07,1.07A1.09,1.09,0,0,0,21.6,11.17Zm-4.69,8.69A2.88,2.88,0,1,1,19,19,2.92,2.92,0,0,1,16.92,19.86Z"/></g></g></svg>