<svg xmlns="http://www.w3.org/2000/svg" viewBox="0 0 72 72"><defs><style>.cls-1{fill:#00ebb9;}.cls-2{fill:#fff;}</style></defs><title>signo conectados</title><g id="Capa_2" data-name="Capa 2"><g id="BENEFICIOS"><circle class="cls-1" cx="36" cy="36" r="36"/><path class="cls-2" d="M48,43.54a7.84,7.84,0,0,0-8.25-.15,10,10,0,0,0-1.23.84l-7.31-4.86a8.09,8.09,0,0,0,.28-6.08l1.22-.7,6.48-3.75a8,8,0,0,0,5.61,1.33A8.15,8.15,0,0,0,46.2,14.32c-.32-.1-.64-.18-1-.25l-.41-.1-1.91,0-.37.06-.14,0a8.1,8.1,0,0,0-5.27,3.25,7.88,7.88,0,0,0-1.47,5.92,13.68,13.68,0,0,0,.49,1.89l0,.08L28.69,29.5a8.15,8.15,0,0,0-13,7.7,8.13,8.13,0,0,0,12.35,5.7l7.86,5.22a7.82,7.82,0,0,0-.22,3.8,8.14,8.14,0,0,0,8,6.71l.59,0a8.11,8.11,0,0,0,7.56-7.81A7.78,7.78,0,0,0,48,43.54Zm-.78,6.94A3.51,3.51,0,0,1,46.14,53a3.66,3.66,0,0,1-2.51,1,3.38,3.38,0,0,1-2.39-1,3.56,3.56,0,0,1-1-2.56A3.5,3.5,0,0,1,43.71,47h0A3.47,3.47,0,0,1,46.2,48,3.4,3.4,0,0,1,47.19,50.47ZM27.25,36a3.46,3.46,0,0,1-3.46,3.46h0A3.46,3.46,0,0,1,20.29,36a3.42,3.42,0,0,1,1-2.44,3.47,3.47,0,0,1,2.46-1h0A3.48,3.48,0,0,1,27.25,36Zm14-11.44a3.43,3.43,0,0,1-1-2.45,3.48,3.48,0,0,1,3.51-3.5h0a3.48,3.48,0,0,1,0,7h0A3.47,3.47,0,0,1,41.26,24.56Z"/></g></g></svg>