<svg xmlns="http://www.w3.org/2000/svg" viewBox="0 0 72 72"><defs><style>.cls-1{fill:#00ebb9;}.cls-2{fill:#fff;}</style></defs><title>signo crecimiento</title><g id="Capa_2" data-name="Capa 2"><g id="BENEFICIOS"><circle class="cls-1" cx="36" cy="36" r="36"/><path class="cls-2" d="M27.36,35.42l-11,11c-2,2-3.56,2.36-4.93,1s-1.1-2.93,1-5.05q6.18-6.18,12.36-12.36c1.89-1.88,3.19-1.89,5.07,0,2.85,2.83,5.67,5.68,8.39,8.42L50.73,25.91c-1,0-2.17,0-3.35,0-2,0-3.29-1.13-3.27-2.83s1.24-2.74,3.17-2.75c3.5,0,7,0,10.49,0,2.05,0,3.09,1.08,3.11,3.16q.05,5.24,0,10.49c0,1.91-1.16,3.13-2.8,3.12s-2.73-1.23-2.78-3.15c0-1.16,0-2.33-.06-3.49,0,0-.07-.07-.22-.21-.44.4-.89.8-1.33,1.23q-6.31,6.3-12.61,12.6c-2,1.94-3.23,1.94-5.19,0C33.1,41.25,30.33,38.42,27.36,35.42Z"/></g></g></svg>