<svg xmlns="http://www.w3.org/2000/svg" viewBox="0 0 72 72"><defs><style>.cls-1{fill:#00ebb9;}.cls-2{fill:#fff;}</style></defs><title>signo peso</title><g id="Capa_2" data-name="Capa 2"><g id="BENEFICIOS"><circle class="cls-1" cx="36" cy="36" r="36"/><path class="cls-2" d="M36,33.06a2.94,2.94,0,0,1,0-5.89,4.72,4.72,0,0,1,3.18,1.54,2.94,2.94,0,0,0,4.09-4.23A11.37,11.37,0,0,0,39,21.77V18.34a2.94,2.94,0,1,0-5.89,0v3.45A8.83,8.83,0,0,0,36,38.94a2.94,2.94,0,0,1,0,5.89,5.33,5.33,0,0,1-3.82-2.23,2.94,2.94,0,0,0-4.51,3.79,12.2,12.2,0,0,0,5.38,3.83v3.43a2.94,2.94,0,1,0,5.89,0V50.21A8.83,8.83,0,0,0,36,33.06Z"/></g></g></svg>