<svg xmlns="http://www.w3.org/2000/svg" viewBox="0 0 33.48 33.49"><defs><style>.cls-1{fill:#fff;}</style></defs><title>wasap loguito</title><g id="Capa_2" data-name="Capa 2"><g id="INICIO"><path class="cls-1" d="M32.16,10.23a16.74,16.74,0,1,0-8.91,21.94A16.74,16.74,0,0,0,32.16,10.23Zm-5.53,9.65a9.87,9.87,0,0,1-2.1,3.06,9.75,9.75,0,0,1-2.13,1.61,10.08,10.08,0,0,1-9.65.12.35.35,0,0,0-.24,0l-1.76.56L8.16,26l-1,.33-.06-.07c0-.07.07-.14.1-.22l.3-.89q.67-2,1.35-4a.44.44,0,0,0,0-.37c-.27-.56-.57-1.12-.79-1.71a9.23,9.23,0,0,1-.55-2.94A9.83,9.83,0,0,1,9.57,9.88,10,10,0,0,1,14,6.66,10.13,10.13,0,0,1,17,6a10,10,0,0,1,9.08,5,9.82,9.82,0,0,1,.51,8.89Z"/><path class="cls-1" d="M24.22,11a8.34,8.34,0,0,0-2-1.93,8.19,8.19,0,0,0-3.41-1.36,8.43,8.43,0,0,0-8.39,3.7A8.14,8.14,0,0,0,9.28,14.1a8.4,8.4,0,0,0-.19,2.36,8.17,8.17,0,0,0,1.5,4.26.25.25,0,0,1,0,.25l-.81,2.38-.19.57L10,23.8l2.67-.85A.37.37,0,0,1,13,23c.39.22.78.44,1.19.62a8,8,0,0,0,3.35.67A8.21,8.21,0,0,0,21,23.51a8.39,8.39,0,0,0,4-3.88A8.23,8.23,0,0,0,24.22,11Zm-1.86,8.35a1.39,1.39,0,0,1-.62.71,2.51,2.51,0,0,1-2.18.45C19,20.37,18.52,20.18,18,20a7.85,7.85,0,0,1-3.06-2.08,12.24,12.24,0,0,1-1.84-2.46,3.3,3.3,0,0,1-.43-2.39,2.65,2.65,0,0,1,.93-1.48.94.94,0,0,1,.77-.16h.28a.38.38,0,0,1,.36.21c.13.27.25.54.36.81s.31.77.49,1.15a.63.63,0,0,1-.08.68c-.17.23-.35.44-.53.66a.38.38,0,0,0,0,.5,6.67,6.67,0,0,0,2.52,2.47c.28.15.57.28.87.4a.35.35,0,0,0,.48-.13l.73-.89a.38.38,0,0,1,.54-.14l2,.93a.33.33,0,0,1,.22.38A6.72,6.72,0,0,1,22.37,19.36Z"/></g></g></svg>