<svg xmlns="http://www.w3.org/2000/svg" viewBox="0 0 19.96 15.68"><defs><style>.cls-1{fill:#333b48;}</style></defs><title>ícono mail</title><g id="Capa_2" data-name="Capa 2"><g id="ABAJO"><path class="cls-1" d="M17.08,0H2.88A2.88,2.88,0,0,0,0,2.88V12.8a2.88,2.88,0,0,0,2.88,2.88h14.2A2.88,2.88,0,0,0,20,12.8V2.88A2.88,2.88,0,0,0,17.08,0Zm0,1.38a1.5,1.5,0,0,1,.34,0l-6,6.8a1.93,1.93,0,0,1-2.9,0l-6-6.8a1.5,1.5,0,0,1,.34,0Zm1.5,11.42a1.51,1.51,0,0,1-1.5,1.5H2.88a1.51,1.51,0,0,1-1.5-1.5V2.88a1.5,1.5,0,0,1,.11-.57l6,6.81a3.31,3.31,0,0,0,5,0l6-6.81a1.49,1.49,0,0,1,.11.57Z"/></g></g></svg>