<svg xmlns="http://www.w3.org/2000/svg" viewBox="0 0 8.83 19"><defs><style>.cls-1{fill:#333b48;fill-rule:evenodd;}</style></defs><title>ícono face</title><g id="Capa_2" data-name="Capa 2"><g id="ABAJO"><path class="cls-1" d="M1.94,9.57v9.18a.24.24,0,0,0,.24.24H5.59a.24.24,0,0,0,.24-.24V9.42H8.31a.24.24,0,0,0,.24-.22l.24-2.81a.24.24,0,0,0-.24-.26H5.83v-2a.85.85,0,0,1,.85-.85H8.59a.24.24,0,0,0,.24-.24V.24A.24.24,0,0,0,8.59,0H5.37A3.42,3.42,0,0,0,1.94,3.42V6.13H.24A.24.24,0,0,0,0,6.37V9.18a.24.24,0,0,0,.24.24H1.94Z"/></g></g></svg>