<svg xmlns="http://www.w3.org/2000/svg" viewBox="0 0 19.99 19.99"><defs><style>.cls-1{fill:#333b48;}</style></defs><title>ícono instagram</title><g id="Capa_2" data-name="Capa 2"><g id="ABAJO"><path class="cls-1" d="M15.25,3.68a1.18,1.18,0,1,0,1.18,1.18A1.18,1.18,0,0,0,15.25,3.68ZM10,5.19A4.94,4.94,0,1,0,15,10.12,4.94,4.94,0,0,0,10,5.19Zm0,8.1a3.16,3.16,0,1,1,3.16-3.16A3.17,3.17,0,0,1,10,13.29ZM20,6a6,6,0,0,0-6-6H6A6,6,0,0,0,0,6V14a6,6,0,0,0,6,6H14a6,6,0,0,0,6-6ZM18.1,14A4.14,4.14,0,0,1,14,18.1H6A4.14,4.14,0,0,1,1.89,14V6A4.14,4.14,0,0,1,6,1.89H14A4.14,4.14,0,0,1,18.1,6Z"/></g></g></svg>