<svg xmlns="http://www.w3.org/2000/svg" viewBox="0 0 16.24 20.14"><defs><style>.cls-1{fill:#333b48;}</style></defs><title>ícono Pablo</title><g id="Capa_2" data-name="Capa 2"><g id="ABAJO"><path class="cls-1" d="M11,9.91a5.38,5.38,0,1,0-5.79,0A8.13,8.13,0,0,0,0,17.49a2.65,2.65,0,0,0,2.64,2.64h11a2.65,2.65,0,0,0,2.64-2.64A8.13,8.13,0,0,0,11,9.91ZM4.13,5.38a4,4,0,1,1,4,4A4,4,0,0,1,4.13,5.38ZM13.6,18.75h-11a1.26,1.26,0,0,1-1.25-1.25,6.73,6.73,0,0,1,13.46,0A1.26,1.26,0,0,1,13.6,18.75Z"/></g></g></svg>