<svg xmlns="http://www.w3.org/2000/svg" viewBox="0 0 21.07 21.07"><defs><style>.cls-1{fill:#333b48;fill-rule:evenodd;}</style></defs><title>ícono wasap</title><g id="Capa_2" data-name="Capa 2"><g id="ABAJO"><path class="cls-1" d="M10.53,0A10.53,10.53,0,0,0,1.68,16.24L.08,19.77A.92.92,0,0,0,1.16,21l4.41-1.21A10.53,10.53,0,1,0,10.53,0Zm0,19.23A8.69,8.69,0,0,1,6.16,18,.92.92,0,0,0,5.45,18l-2.88.79,1-2.21a.92.92,0,0,0-.09-.92,8.69,8.69,0,1,1,7.05,3.62Z"/><path class="cls-1" d="M14.58,12.11A1.8,1.8,0,0,0,13,11.77c-.4.16-.65.79-.91,1.11a.38.38,0,0,1-.49.11,7,7,0,0,1-3.47-3,.43.43,0,0,1,.05-.58,2.35,2.35,0,0,0,.63-1,2.24,2.24,0,0,0-.28-1.21,2.87,2.87,0,0,0-.89-1.35A1.23,1.23,0,0,0,6.35,6a2.7,2.7,0,0,0-.94,2.14,3,3,0,0,0,.08.68,5.62,5.62,0,0,0,.65,1.5,11.85,11.85,0,0,0,.68,1,10.5,10.5,0,0,0,2.95,2.74,8.93,8.93,0,0,0,1.84.87,4.09,4.09,0,0,0,2.14.34A2.59,2.59,0,0,0,15.7,13.9a1.25,1.25,0,0,0,.09-.74C15.68,12.66,15,12.36,14.58,12.11Z"/></g></g></svg>